<svg viewBox="0 0 512 512" xmlns="http://www.w3.org/2000/svg"><g fill="#ffffff00"><circle cx="256" cy="256" r="256"/><path d="M256 469.334C138.37 469.334 42.667 373.63 42.667 256c0-117.632 95.702-213.334 213.333-213.334 117.636 0 213.333 95.702 213.333 213.334 0 117.63-95.697 213.333-213.333 213.333z"/></g><path d="M315.886 167.502h-28.371c0-12.998-10.495-23.492-23.493-23.492-13 0-23.492 10.494-23.492 23.492h-28.374v40.68h103.73v-40.68z" opacity=".3"/><path d="M325.886 187.498v30.683H202.157v-30.683h-35.993V383.99h195.672V187.5h-35.95zM203.13 359.438l-15.743-15.74 7.069-7.07 8.674 8.67 20.88-20.88 7.069 7.068-27.95 27.952zm0-44.42l-15.743-15.74 7.069-7.07 8.674 8.67 20.88-20.881 7.069 7.07-27.95 27.951zm0-44.42l-15.743-15.745 7.069-7.07 8.674 8.676 20.88-20.882 7.069 7.07-27.95 27.951zm133.95 80.35h-92.213v-10h92.213v10zm0-44.42h-92.213v-9.999h92.213v9.999zm0-44.425h-92.213v-9.999h92.213v9.999z" opacity=".3"/><g fill="#FFF"><path d="M307.886 159.502h-28.371c0-12.998-10.495-23.492-23.493-23.492-13 0-23.492 10.494-23.492 23.492h-28.374v40.68h103.73v-40.68z"/><path d="M317.886 179.498v30.683H194.157v-30.683h-35.993V375.99h195.672V179.5h-35.95zM195.13 351.438l-15.743-15.74 7.069-7.07 8.674 8.67 20.88-20.88 7.069 7.068-27.95 27.952zm0-44.42l-15.743-15.74 7.069-7.07 8.674 8.67 20.88-20.881 7.069 7.07-27.95 27.951zm0-44.42l-15.743-15.745 7.069-7.07 8.674 8.676 20.88-20.882 7.069 7.07-27.95 27.951zm133.95 80.35h-92.213v-10h92.213v10zm0-44.42h-92.213v-9.999h92.213v9.999zm0-44.425h-92.213v-9.999h92.213v9.999z"/></g></svg>