<svg viewBox="0 0 24 24" xmlns="http://www.w3.org/2000/svg"><path fill="#fff" d="M23.5 0H.5a.5.5 0 000 1h3.053L6.1 23.556a.5.5 0 00.497.444h10.807a.5.5 0 00.497-.444L20.447 1H23.5a.5.5 0 000-1zM4.56 1h3.464l.178 3.6H4.966L4.56 1zm.519 4.6h3.172l.178 3.6H5.485l-.406-3.6zm.926 8.2l-.406-3.6h2.88l.178 3.6H6.005zm.519 4.6l-.406-3.6h2.588l.178 3.6h-2.36zm.519 4.6l-.406-3.6h2.296l.178 3.6H7.043zm6.845 0h-3.776l-.178-3.6h4.131l-.177 3.6zm.227-4.6h-4.23l-.178-3.6h4.586l-.178 3.6zm.227-4.6H9.658l-.178-3.6h5.04l-.178 3.6zm.227-4.6H9.431l-.178-3.6h5.495l-.179 3.6zM9.203 4.6L9.025 1h5.949l-.178 3.6H9.203zM16.957 23H14.89l.178-3.6h2.296l-.407 3.6zm.519-4.6h-2.359l.178-3.6h2.588l-.407 3.6zm.519-4.6h-2.652l.178-3.6h2.88l-.406 3.6zm.52-4.6h-2.944l.178-3.6h3.172l-.406 3.6zm.519-4.6h-3.236l.178-3.6h3.464l-.406 3.6z"/></svg>