<svg xmlns="http://www.w3.org/2000/svg" viewBox="0 0 309.118 309.118"><path fill="#fff" d="M211.044 170.163c-.983 0-1.947-.019-2.918-.064l-201.686.064a6.421 6.421 0 01-6.427-6.427 6.425 6.425 0 016.427-6.427l201.97-.058c1.06.039 1.844.058 2.641.058 30.258 0 54.872-24.615 54.872-54.872 0-30.251-24.615-54.866-54.872-54.866-30.251 0-54.866 24.615-54.866 54.866 0 7.442 1.465 14.653 4.338 21.427a6.427 6.427 0 01-3.393 8.432 6.42 6.42 0 01-8.432-3.393c-3.56-8.374-5.366-17.275-5.366-26.459 0-37.34 30.38-67.72 67.72-67.72s67.726 30.386 67.726 67.72c-.008 37.34-30.394 67.719-67.734 67.719zm98.074 57.643c0-25.694-20.9-46.595-46.595-46.595-.675 0-1.343.013-1.735.039l-254.355-.039a6.425 6.425 0 00-6.427 6.427 6.429 6.429 0 006.427 6.427l254.631.032 1.459-.032c18.606 0 33.741 15.135 33.741 33.741s-15.135 33.741-33.741 33.741-33.741-15.135-33.741-33.741c0-4.582.9-9.01 2.667-13.175 1.395-3.265-.135-7.044-3.393-8.432-3.265-1.401-7.037.122-8.432 3.393-2.455 5.758-3.695 11.89-3.695 18.207 0 25.694 20.9 46.595 46.595 46.595 25.694 0 46.594-20.894 46.594-46.588zM6.433 145.06l75.329-.026 1.472.026c20.547 0 37.269-16.723 37.269-37.269S103.78 70.522 83.234 70.522c-20.553 0-37.276 16.723-37.276 37.269 0 5.051.99 9.955 2.956 14.57 1.388 3.265 5.174 4.769 8.432 3.393 3.265-1.395 4.788-5.167 3.393-8.432a24.243 24.243 0 01-1.928-9.531c0-13.464 10.951-24.416 24.422-24.416 13.464 0 24.416 10.951 24.416 24.416s-10.951 24.416-24.416 24.416l-1.33-.026-75.477.026a6.429 6.429 0 00-6.427 6.427 6.436 6.436 0 006.434 6.426zm97.476 68.555a6.421 6.421 0 00-6.427-6.427H6.433c-3.548 0-6.427 2.873-6.427 6.427s2.879 6.427 6.427 6.427h91.049a6.421 6.421 0 006.427-6.427z"/></svg>